<svg width="28" height="28" viewBox="0 0 28 28" fill="none" xmlns="http://www.w3.org/2000/svg">
<path fill-rule="evenodd" clip-rule="evenodd" d="M14 0C14.5304 0 15.0391 0.210714 15.4142 0.585786C15.7893 0.960859 16 1.46957 16 2V12H26C26.5304 12 27.0391 12.2107 27.4142 12.5858C27.7893 12.9609 28 13.4696 28 14C28 14.5304 27.7893 15.0391 27.4142 15.4142C27.0391 15.7893 26.5304 16 26 16H16V26C16 26.5304 15.7893 27.0391 15.4142 27.4142C15.0391 27.7893 14.5304 28 14 28C13.4696 28 12.9609 27.7893 12.5858 27.4142C12.2107 27.0391 12 26.5304 12 26V16H2C1.46957 16 0.960859 15.7893 0.585786 15.4142C0.210714 15.0391 0 14.5304 0 14C0 13.4696 0.210714 12.9609 0.585786 12.5858C0.960859 12.2107 1.46957 12 2 12H12V2C12 1.46957 12.2107 0.960859 12.5858 0.585786C12.9609 0.210714 13.4696 0 14 0Z" fill="white"/>
</svg>
